PathFileType	4	(X/Y/Z)	/Volumes/GoogleDrive/My Drive/Research/Stanford/Projects/Digital Athlete Project/Sprinting/Sprint Simulation/sprinter/subjects/JA1/experimental_data/TRC/run0900cms.trc
DataRate	CameraRate	NumFrames	NumMarkers	Units	OrigDataRate	OrigDataStartFrame	OrigNumFrames
250.000000	250.000000	4	53	mm	250.000000	41	323
Frame#	Time	C7			RSH			LSH			MAN			T7			LARM			LELB			LFOREARM			LWR			RARM			RELB			RFOREARM			RWR			RASI			LASI			SACR			P1			P2			P3			LTHLP			LTHLD			LTHAP			LTHAD			LLEPI			LPAT			LTIAP			LTIAD			LTILAT			LLMAL			LHEEL			LMFS			LMFL			LP1MT			LTOE			LP5MT			RTHLP			RTHLD			RTHAP			RTHAD			RLEPI			RPAT			RTIAP			RTIAD			RTILAT			RLMAL			RHEEL			RMFS			RMFL			RP1MT			RTOE			RP5MT			x52			x53			
		X1	Y1	Z1	X2	Y2	Z2	X3	Y3	Z3	X4	Y4	Z4	X5	Y5	Z5	X6	Y6	Z6	X7	Y7	Z7	X8	Y8	Z8	X9	Y9	Z9	X10	Y10	Z10	X11	Y11	Z11	X12	Y12	Z12	X13	Y13	Z13	X14	Y14	Z14	X15	Y15	Z15	X16	Y16	Z16	X17	Y17	Z17	X18	Y18	Z18	X19	Y19	Z19	X20	Y20	Z20	X21	Y21	Z21	X22	Y22	Z22	X23	Y23	Z23	X24	Y24	Z24	X25	Y25	Z25	X26	Y26	Z26	X27	Y27	Z27	X28	Y28	Z28	X29	Y29	Z29	X30	Y30	Z30	X31	Y31	Z31	X32	Y32	Z32	X33	Y33	Z33	X34	Y34	Z34	X35	Y35	Z35	X36	Y36	Z36	X37	Y37	Z37	X38	Y38	Z38	X39	Y39	Z39	X40	Y40	Z40	X41	Y41	Z41	X42	Y42	Z42	X43	Y43	Z43	X44	Y44	Z44	X45	Y45	Z45	X46	Y46	Z46	X47	Y47	Z47	X48	Y48	Z48	X49	Y49	Z49	X50	Y50	Z50	X51	Y51	Z51	X52	Y52	Z52	X53	Y53	Z53	
41	0.164000	-4429.416504	1491.962646	147.181244	-4372.282715	1459.489746	328.583282	-4379.371582	1452.154663	-24.597795	-4302.562988	1371.381470	155.801865	-4537.031738	1322.803589	169.573959	-4398.543457	1243.420166	-114.362938	-4432.768555	1107.056152	-154.581833	-4324.307617	1024.961060	-113.928711	-4237.331055	936.986023	-79.757652	-4447.074219	1280.925415	416.953644	-4518.001465	1159.005493	461.811523	-4469.766113	1017.950928	473.431274	-4449.957520	888.623535	481.653992	-4376.533691	1008.055359	259.079376	-4423.165527	1022.855347	50.548710	-4573.450684	1075.351440	202.859329	-4599.457031	1054.654297	151.302795	-4580.538574	1042.329590	255.384277	-4623.993164	995.954407	202.508118	-4468.258789	737.200745	-9.488683	-4423.726562	632.778198	2.159142	-4334.332031	771.018616	38.421021	-4309.284180	664.873352	51.911682	-4386.280762	520.116089	26.880127	-4293.218750	534.370483	81.086250	-4426.574219	361.238373	127.409279	-4508.842285	249.989487	152.517975	-4506.760742	316.864532	68.228531	-4623.019531	138.079453	125.322975	-4690.448242	128.071060	182.509216	-4522.176758	116.821106	167.631119	-4567.333984	92.726692	110.203682	-4469.239746	67.738281	191.352356	-4431.123047	71.751396	150.757202	-4515.808105	56.402790	72.090004	-4392.789062	752.736084	379.061279	-4337.565918	653.208191	380.590149	-4277.020508	753.774658	287.349274	-4242.104492	664.955688	288.652649	-4309.445312	534.154602	342.338806	-4238.782227	488.090790	284.698181	-4470.497559	594.326904	234.597794	-4570.432617	668.226624	214.681244	-4478.896484	627.616333	321.859558	-4662.767090	760.252747	261.577728	-4639.770996	830.050110	208.030762	-4737.196777	684.320190	215.500565	-4735.811035	740.598999	266.995270	-4816.828125	672.138977	176.625519	-4816.479980	645.497009	221.830017	-4818.885254	716.260193	292.373291	-4438.879883	816.299072	486.252411	-4193.125000	892.272705	-62.390213
42	0.168000	-4392.426758	1491.710083	148.171143	-4334.670410	1458.067871	329.348816	-4343.466309	1452.941772	-23.708677	-4264.944336	1371.350098	156.279434	-4499.162598	1322.811035	169.881195	-4353.791504	1243.326904	-111.963127	-4376.349121	1104.582397	-149.968887	-4262.432129	1031.054688	-107.678375	-4169.171875	950.354492	-71.940269	-4416.718750	1283.959106	418.445648	-4492.785156	1165.130981	463.609955	-4453.430176	1021.039795	476.920593	-4442.763184	890.483582	486.286407	-4339.078125	1008.459473	257.645264	-4387.089844	1022.579407	48.807144	-4535.701172	1074.696655	204.462296	-4562.232910	1054.547974	153.059326	-4543.639160	1041.582275	257.045441	-4586.606934	995.395752	203.759644	-4442.410156	734.278442	-8.257742	-4403.261230	627.644897	3.444174	-4307.057617	766.508118	40.459747	-4286.151855	657.290894	50.364193	-4367.471680	513.282715	26.455500	-4275.157227	527.572937	79.956497	-4416.653809	357.282318	127.877304	-4503.031738	249.020401	151.649307	-4495.781738	314.605255	66.911034	-4619.916504	141.469711	122.742455	-4689.012207	134.339844	178.713226	-4521.164551	117.727432	165.855331	-4566.229980	93.814079	108.281746	-4469.455078	67.874435	190.902054	-4432.041016	71.568909	151.082657	-4516.339355	56.145775	71.919785	-4343.378418	759.466797	377.601685	-4282.290527	663.039062	379.084534	-4228.728027	766.355225	285.399017	-4188.254395	680.171997	287.166534	-4248.452637	545.218689	340.237305	-4176.176758	502.887482	282.034973	-4416.200684	596.178040	233.731537	-4516.989258	663.784363	214.076904	-4422.986328	628.642029	320.453064	-4616.064453	749.280701	261.471008	-4598.472168	820.641663	208.124191	-4684.832520	667.591858	215.103577	-4688.128906	724.370850	266.727844	-4763.629395	650.051514	175.858597	-4760.164062	624.059204	220.868744	-4769.037598	693.596985	291.571350	-4436.797852	817.471924	491.524109	-4121.771973	909.338562	-53.776371
43	0.172000	-4355.484863	1491.650513	149.095520	-4297.016113	1457.037720	330.108673	-4307.486328	1454.342041	-22.792448	-4227.333496	1371.442383	156.937607	-4461.011230	1322.193848	170.434662	-4309.165527	1244.442627	-110.164818	-4320.751953	1103.957397	-144.884338	-4201.339355	1041.135254	-100.428413	-4102.495117	967.329956	-63.643497	-4386.307129	1287.962891	419.937195	-4467.270508	1172.491943	465.584351	-4436.757324	1026.085693	479.788910	-4434.607422	894.980652	489.998474	-4300.795898	1009.755432	253.954620	-4348.960449	1022.358826	48.423042	-4497.689941	1074.278931	206.010605	-4524.291016	1054.550415	154.575912	-4505.531250	1041.125610	258.437378	-4549.068359	995.166870	205.250107	-4416.990723	730.924683	-6.863833	-4382.214355	622.828064	4.385245	-4278.682617	760.953186	41.658562	-4263.624512	647.767090	47.755138	-4349.681152	506.019562	25.704542	-4257.835938	519.105469	78.012550	-4406.437500	352.950165	126.811310	-4497.451660	248.310532	150.034103	-4486.550293	313.348358	65.126892	-4616.391113	144.570587	120.371605	-4687.288086	141.204636	175.443420	-4520.120605	118.668175	164.129120	-4565.343262	95.512695	106.549713	-4469.645508	67.880035	190.534378	-4432.949707	71.274338	151.143921	-4516.195801	55.825218	71.969879	-4293.026367	766.940857	376.604950	-4228.006348	674.051697	377.095856	-4181.077148	779.904968	283.550568	-4135.702637	695.877319	285.368927	-4187.937500	557.428223	337.892609	-4113.244629	519.958313	279.203125	-4358.477539	596.495483	232.368637	-4464.264648	659.534180	213.209763	-4367.794922	629.859802	318.783783	-4570.101074	736.710571	261.712158	-4558.262695	809.767639	208.603226	-4629.950684	648.299438	214.766541	-4640.258789	706.290527	266.588013	-4707.914062	625.400024	175.151566	-4703.085938	600.477478	220.143906	-4717.408691	668.149902	290.717010	-4433.404785	821.662109	495.708038	-4052.257324	929.818420	-44.947559
44	0.176000	-4318.646973	1491.724609	149.983307	-4259.711914	1456.523560	330.841644	-4271.527832	1456.343872	-21.822748	-4189.805664	1371.670288	157.709885	-4422.601562	1321.220703	170.989120	-4265.580566	1245.983521	-107.717316	-4266.285645	1105.147461	-139.444382	-4142.730957	1051.793701	-93.472610	-4038.525391	986.951233	-55.020302	-4355.593750	1292.666504	421.464294	-4441.614746	1180.872559	467.619537	-4419.883789	1032.811523	482.420563	-4425.551270	901.813904	492.936951	-4262.372070	1010.992615	252.786942	-4310.958496	1021.734009	47.519112	-4458.991211	1074.038940	207.314438	-4486.261230	1054.612671	156.041382	-4466.782227	1040.842163	259.779602	-4510.924316	995.197388	206.744110	-4391.084473	728.368408	-5.959348	-4360.870117	618.516663	4.623936	-4250.319336	752.627625	40.487305	-4240.933594	637.462646	45.607662	-4333.500488	499.686249	24.854229	-4241.169922	509.122070	75.890961	-4396.798828	348.939453	124.997200	-4491.695801	247.813354	147.776764	-4477.890137	312.742157	63.499802	-4613.928223	148.279892	117.856476	-4685.060547	148.406693	172.274445	-4518.378418	120.124207	162.448303	-4563.863281	97.316383	104.700516	-4469.933105	68.049469	190.048676	-4433.779785	71.178383	151.426208	-4515.750000	55.813816	71.634949	-4246.064453	775.004578	374.887360	-4174.987305	685.710388	375.257568	-4134.663574	793.784302	281.840454	-4084.256104	712.522583	283.712738	-4128.354980	570.676941	335.276978	-4051.701172	538.027161	276.075806	-4300.558105	598.498108	231.282471	-4412.650391	653.525330	212.201050	-4312.643555	631.182678	316.734100	-4523.605469	722.316040	261.779816	-4518.513184	797.007202	209.585114	-4576.356445	629.933838	215.109894	-4590.681152	685.765442	266.402008	-4650.450195	599.832886	174.404221	-4643.432617	575.004639	219.344589	-4664.538086	640.807007	290.380554	-4428.720703	828.555420	498.818085	-3985.562744	953.995056	-35.476913
